<svg width="75" height="75" viewBox="0 0 75 75" fill="none" xmlns="http://www.w3.org/2000/svg">
<circle cx="37.5" cy="37.5" r="37.5" fill="black"/>
<path d="M18.832 30.0889H20.5811V41.4619H27.1201V43H18.832V30.0889ZM32.376 41.9805C33.4248 41.9805 34.1426 41.585 34.5293 40.7939C34.9219 39.9971 35.1182 39.1123 35.1182 38.1396C35.1182 37.2607 34.9775 36.5459 34.6963 35.9951C34.251 35.1279 33.4834 34.6943 32.3936 34.6943C31.4268 34.6943 30.7236 35.0635 30.2842 35.8018C29.8447 36.54 29.625 37.4307 29.625 38.4736C29.625 39.4756 29.8447 40.3105 30.2842 40.9785C30.7236 41.6465 31.4209 41.9805 32.376 41.9805ZM32.4375 33.3145C33.6504 33.3145 34.6758 33.7188 35.5137 34.5273C36.3516 35.3359 36.7705 36.5254 36.7705 38.0957C36.7705 39.6133 36.4014 40.8672 35.6631 41.8574C34.9248 42.8477 33.7793 43.3428 32.2266 43.3428C30.9316 43.3428 29.9033 42.9062 29.1416 42.0332C28.3799 41.1543 27.999 39.9766 27.999 38.5C27.999 36.918 28.4004 35.6582 29.2031 34.7207C30.0059 33.7832 31.084 33.3145 32.4375 33.3145ZM41.9824 33.4199C42.7207 33.4199 43.3652 33.6016 43.916 33.9648C44.2148 34.1699 44.5195 34.4688 44.8301 34.8613V33.6748H46.2891V42.2354C46.2891 43.4307 46.1133 44.374 45.7617 45.0654C45.1055 46.3428 43.8662 46.9814 42.0439 46.9814C41.0303 46.9814 40.1777 46.7529 39.4863 46.2959C38.7949 45.8447 38.4082 45.1357 38.3262 44.1689H39.9346C40.0107 44.5908 40.1631 44.916 40.3916 45.1445C40.749 45.4961 41.3115 45.6719 42.0791 45.6719C43.292 45.6719 44.0859 45.2441 44.4609 44.3887C44.6836 43.8848 44.7861 42.9854 44.7686 41.6904C44.4521 42.1709 44.0713 42.5283 43.626 42.7627C43.1807 42.9971 42.5918 43.1143 41.8594 43.1143C40.8398 43.1143 39.9463 42.7539 39.1787 42.0332C38.417 41.3066 38.0361 40.1084 38.0361 38.4385C38.0361 36.8623 38.4199 35.6318 39.1875 34.7471C39.9609 33.8623 40.8926 33.4199 41.9824 33.4199ZM44.8301 38.2539C44.8301 37.0879 44.5898 36.2236 44.1094 35.6611C43.6289 35.0986 43.0166 34.8174 42.2725 34.8174C41.1592 34.8174 40.3975 35.3389 39.9873 36.3818C39.7705 36.9385 39.6621 37.668 39.6621 38.5703C39.6621 39.6309 39.876 40.4395 40.3037 40.9961C40.7373 41.5469 41.3174 41.8223 42.0439 41.8223C43.1807 41.8223 43.9805 41.3096 44.4434 40.2842C44.7012 39.7041 44.8301 39.0273 44.8301 38.2539ZM52.415 41.9805C53.4639 41.9805 54.1816 41.585 54.5684 40.7939C54.9609 39.9971 55.1572 39.1123 55.1572 38.1396C55.1572 37.2607 55.0166 36.5459 54.7354 35.9951C54.29 35.1279 53.5225 34.6943 52.4326 34.6943C51.4658 34.6943 50.7627 35.0635 50.3232 35.8018C49.8838 36.54 49.6641 37.4307 49.6641 38.4736C49.6641 39.4756 49.8838 40.3105 50.3232 40.9785C50.7627 41.6465 51.46 41.9805 52.415 41.9805ZM52.4766 33.3145C53.6895 33.3145 54.7148 33.7188 55.5527 34.5273C56.3906 35.3359 56.8096 36.5254 56.8096 38.0957C56.8096 39.6133 56.4404 40.8672 55.7021 41.8574C54.9639 42.8477 53.8184 43.3428 52.2656 43.3428C50.9707 43.3428 49.9424 42.9062 49.1807 42.0332C48.4189 41.1543 48.0381 39.9766 48.0381 38.5C48.0381 36.918 48.4395 35.6582 49.2422 34.7207C50.0449 33.7832 51.123 33.3145 52.4766 33.3145Z" fill="white"/>
</svg>
